 <svg width="26" height="26" viewBox="0 0 22 22" fill="none" xmlns="http://www.w3.org/2000/svg">
                        <path
                            d="M15.95 0C14.036 0 12.199 0.971117 11 2.50572C9.801 0.971117 7.964 0 6.05 0C2.662 0 0 2.90136 0 6.59401C0 11.1259 3.74 14.8185 9.405 20.4294L11 22L12.595 20.4174C18.26 14.8185 22 11.1259 22 6.59401C22 2.90136 19.338 0 15.95 0ZM11.11 18.643L11 18.7629L10.89 18.643C5.654 13.4757 2.2 10.0589 2.2 6.59401C2.2 4.19619 3.85 2.39782 6.05 2.39782C7.744 2.39782 9.394 3.58474 9.977 5.22725H12.034C12.606 3.58474 14.256 2.39782 15.95 2.39782C18.15 2.39782 19.8 4.19619 19.8 6.59401C19.8 10.0589 16.346 13.4757 11.11 18.643Z"
                            fill="#556353" />
                    </svg>