<svg width="24" height="24" viewBox="0 0 25 25" fill="none" xmlns="http://www.w3.org/2000/svg">
<path d="M9.0625 0.125C11.4329 0.125 13.7062 1.06663 15.3823 2.74273C17.0584 4.41884 18 6.69213 18 9.0625C18 11.2763 17.1887 13.3112 15.855 14.8787L16.2263 15.25H17.3125L24.1875 22.125L22.125 24.1875L15.25 17.3125V16.2263L14.8787 15.855C13.3112 17.1887 11.2763 18 9.0625 18C6.69213 18 4.41884 17.0584 2.74273 15.3823C1.06663 13.7062 0.125 11.4329 0.125 9.0625C0.125 6.69213 1.06663 4.41884 2.74273 2.74273C4.41884 1.06663 6.69213 0.125 9.0625 0.125M9.0625 2.875C5.625 2.875 2.875 5.625 2.875 9.0625C2.875 12.5 5.625 15.25 9.0625 15.25C12.5 15.25 15.25 12.5 15.25 9.0625C15.25 5.625 12.5 2.875 9.0625 2.875Z" fill="#556353"/>
</svg>
