 <svg width="26" height="26" viewBox="0 0 28 28" fill="none" xmlns="http://www.w3.org/2000/svg">
                        <path
                            d="M14 0.666687C12.249 0.666687 10.5152 1.01156 8.89751 1.68163C7.27984 2.35169 5.80998 3.33382 4.57187 4.57193C2.07138 7.07242 0.666626 10.4638 0.666626 14C0.666626 17.5362 2.07138 20.9276 4.57187 23.4281C5.80998 24.6662 7.27984 25.6484 8.89751 26.3184C10.5152 26.9885 12.249 27.3334 14 27.3334C17.5362 27.3334 20.9276 25.9286 23.4281 23.4281C25.9285 20.9276 27.3333 17.5362 27.3333 14C27.3333 12.2491 26.9884 10.5152 26.3184 8.89757C25.6483 7.2799 24.6662 5.81004 23.4281 4.57193C22.1899 3.33382 20.7201 2.35169 19.1024 1.68163C17.4847 1.01156 15.7509 0.666687 14 0.666687M7.42663 22.3734C7.99996 21.1734 11.4933 20 14 20C16.5066 20 20 21.1734 20.5733 22.3734C18.76 23.8134 16.48 24.6667 14 24.6667C11.52 24.6667 9.23996 23.8134 7.42663 22.3734ZM22.48 20.44C20.5733 18.12 15.9466 17.3334 14 17.3334C12.0533 17.3334 7.42663 18.12 5.51996 20.44C4.15996 18.6667 3.33329 16.4267 3.33329 14C3.33329 8.12002 8.11996 3.33335 14 3.33335C19.88 3.33335 24.6666 8.12002 24.6666 14C24.6666 16.4267 23.84 18.6667 22.48 20.44ZM14 6.00002C11.4133 6.00002 9.33329 8.08002 9.33329 10.6667C9.33329 13.2534 11.4133 15.3334 14 15.3334C16.5866 15.3334 18.6666 13.2534 18.6666 10.6667C18.6666 8.08002 16.5866 6.00002 14 6.00002ZM14 12.6667C13.4695 12.6667 12.9608 12.456 12.5857 12.0809C12.2107 11.7058 12 11.1971 12 10.6667C12 10.1363 12.2107 9.62755 12.5857 9.25247C12.9608 8.8774 13.4695 8.66669 14 8.66669C14.5304 8.66669 15.0391 8.8774 15.4142 9.25247C15.7892 9.62755 16 10.1363 16 10.6667C16 11.1971 15.7892 11.7058 15.4142 12.0809C15.0391 12.456 14.5304 12.6667 14 12.6667Z"
                            fill="#556353" />
                    </svg>